<svg xmlns:xlink="http://www.w3.org/1999/xlink" xmlns="http://www.w3.org/2000/svg" viewBox="0 0 25 25" class="as-svgicon as-svgicon-applestorepickup as-svgicon-reduced as-svgicon-applestorepickupreduced" role="img" aria-hidden="true" width="25" height="25"><path fill="none" d="M0 0h25v25H0z"></path><path d="M18.5 5h-1.775a4.231 4.231 0 0 0-8.45 0H6.5A2.5 2.5 0 0 0 4 7.5v11A2.5 2.5 0 0 0 6.5 21h12a2.5 2.5 0 0 0 2.5-2.5v-11A2.5 2.5 0 0 0 18.5 5Zm-6-3a3.245 3.245 0 0 1 3.225 3h-6.45A3.245 3.245 0 0 1 12.5 2ZM20 18.5a1.5 1.5 0 0 1-1.5 1.5h-12A1.5 1.5 0 0 1 5 18.5v-11A1.5 1.5 0 0 1 6.5 6h12A1.5 1.5 0 0 1 20 7.5Z" fill="#1D1D1F"></path><path d="M14.4 12.448a1.592 1.592 0 0 1 .738-1.328 1.607 1.607 0 0 0-1.37-.687c-.52 0-.941.317-1.22.317s-.663-.3-1.129-.3a1.861 1.861 0 0 0-1.739 2.068 4.32 4.32 0 0 0 .723 2.3c.346.491.648.883 1.084.883s.617-.287 1.144-.287c.55 0 .663.279 1.137.279s.791-.43 1.084-.853a3.24 3.24 0 0 0 .474-.989 1.516 1.516 0 0 1-.926-1.403ZM12.583 10.357a1.346 1.346 0 0 0 .941-.5 1.594 1.594 0 0 0 .361-.974.731.731 0 0 0-.008-.136 1.5 1.5 0 0 0-1.016.528 1.547 1.547 0 0 0-.384.943c0 .053.008.106.008.128.03.004.06.011.098.011Z" fill="#1D1D1F"></path></svg>