<svg xmlns="http://www.w3.org/2000/svg"  xmlns:xlink="http://www.w3.org/1999/xlink"  width="46" height="56" viewBox="0 0 46 56" class="dd-glyph-svg dd-glyph-elevated" aria-hidden="true">
  <path d="M41.0009,12H5A5,5,0,0,0,.0009,17L0,39a5,5,0,0,0,4.9991,5H41.0009A5,5,0,0,0,46,39V17A5,5,0,0,0,41.0009,12ZM5,14H41.0009A3.0032,3.0032,0,0,1,44,17l.0005,2H2l.0005-2A3.0032,3.0032,0,0,1,5,14ZM41.0009,42H4.9991a3.0032,3.0032,0,0,1-3-3V22.9577H44V39A3.0032,3.0032,0,0,1,41.0009,42ZM15,31.5737v3.8526A1.5541,1.5541,0,0,1,13.4663,37H8.5338A1.5542,1.5542,0,0,1,7,35.4263V31.5737A1.5542,1.5542,0,0,1,8.5338,30h4.9325A1.5541,1.5541,0,0,1,15,31.5737Z"></path>
</svg>