<svg xmlns="http://www.w3.org/2000/svg"  xmlns:xlink="http://www.w3.org/1999/xlink"  width="40" height="56" viewBox="0 0 40 56" class="dd-glyph-svg dd-glyph-elevated" aria-hidden="true">
  <path d="m0 0h40v56h-40z" fill="none"></path>
  <path d="m38 29.0205v9.9795c0 3.8594-3.1403 7-6.9996 7h-22c-3.8594 0-7-3.1406-7-7v-4.75h-1.2514c-.7087 0-.8958-.4824-.502-1.0337l2.2051-3.1304c.315-.4529.7875-.443 1.1025 0l2.2051 3.1403c.3839.5414.1969 1.0238-.5021 1.0238h-1.2576v4.75c0 2.7568 2.2435 5 5.0004 5h22c2.7568 0 5-2.2432 5-5v-9.9795c0-.5527.4473-1 1-1s.9996.4473.9996 1zm1.251-7.2705h-1.251v-4.75c0-3.8594-3.1403-7-6.9996-7h-22c-3.8594 0-7 3.1406-7 7v9.9795c0 .5527.4473 1 1 1s.9996-.4473.9996-1v-9.9795c0-2.7568 2.2435-5 5.0004-5h22c2.7568 0 5 2.2432 5 5v4.75h-1.258c-.6989 0-.886.4823-.502 1.0237l2.2051 3.1404c.315.4429.7875.4529 1.1025 0l2.2051-3.1305c.3937-.5513.2067-1.0336-.5021-1.0336zm-13.8013 1.6872c.2991-.2918.7214-.4372 1.2668-.4372h3.569c.5396 0 .9599.1454 1.261.4372.303.2918.4536.7004.4536 1.225v8.6845c0 .5246-.1486.9313-.4477 1.2201s-.7214.4332-1.2668.4332h-3.569c-.5454 0-.9677-.1444-1.2668-.4332s-.4496-.6955-.4496-1.2201v-8.6845c0-.5246.1505-.9333.4496-1.225zm.7038 9.7945c0 .2004.0469.3517.1447.4548.0958.1032.2424.1552.436.1552h3.524c.1935 0 .3402-.0521.4398-.1552.0997-.1032.1506-.2544.1506-.4548v-8.4546c0-.2004-.0508-.3537-.1506-.4598-.0997-.1061-.2463-.1591-.4398-.1591h-3.524c-.1935 0-.3402.053-.436.1591-.0977.1061-.1447.2593-.1447.4598zm2.3488-13.2317h-16.6196c-.5806 0-1.0401.1572-1.3773.4725s-.5054.783-.5054 1.4019v11.1256h-1.2559c-.2757 0-.5103.0824-.7038.2798s-.2903.4352-.2903.7122.0968.5138.2903.7122c.1935.1965.4281.2957.7038.2957h15.1703c-.2581-.4126-.393-.8841-.4047-1.4146 0-.1002-.002-.2004-.0059-.3006-.002-.1002-.0039-.1846-.0039-.2848h-12v-10.6512c0-.2829.0704-.4951.2111-.6366s.3519-.2122.6334-.2122h17.7686c-.0352-.4715-.1916-.9037-.4672-1.1424s-.6569-.3576-1.1437-.3576zm-.6924 5.4067h1.3802c.1114 0 .2072-.0403.2854-.1199.0801-.0796.1193-.1778.1193-.2957 0-.112-.0391-.2063-.1193-.2829-.0782-.0766-.174-.1149-.2854-.1149h-1.3802c-.1173 0-.215.0383-.2913.1149s-.1134.1709-.1134.2829c0 .1179.0371.2161.1134.2957s.174.1199.2913.1199zm-.4179 7.8983h2.2c.1887 0 .284-.1032.284-.3095 0-.0884-.027-.1611-.0809-.2171s-.1222-.0835-.2031-.0835h-2.2c-.0809 0-.1456.0275-.1941.0835s-.0719.1287-.0719.2171c0 .2063.0881.3095.266.3095z"></path>
</svg>