<svg xmlns="http://www.w3.org/2000/svg"  xmlns:xlink="http://www.w3.org/1999/xlink"  width="49" height="56" viewBox="0 0 49 56" class="dd-glyph-svg dd-glyph-elevated" aria-hidden="true">
  <path d="m0 0h49v56h-49z" fill="none"></path>
  <path d="m47.8447 27.501-6.6758-7.1289c-.9111-.9619-1.9541-1.3721-3.4854-1.3721h-4.6836v-4c0-2.7614-2.2385-5-5-5h-22.9999c-2.7615 0-5 2.2386-5 5v21c0 2.7614 2.2385 5 5 5h1.1504c.2532 2.8719 2.6616 5.125 5.5996 5.125s5.3464-2.2531 5.5996-5.125h13.8008c.2532 2.8719 2.6616 5.125 5.5996 5.125s5.3464-2.2531 5.5996-5.125h2.6436c2.5469 0 4.0068-1.4092 4.0068-3.8657v-6.7515c0-1.0835-.4268-2.1396-1.1553-2.8818zm-32.5202 13.499c-.2463 1.7609-1.7468 3.125-3.5745 3.125s-3.3281-1.3641-3.5745-3.125c-.0232-.165-.0505-.3288-.0505-.5 0-.5364.1245-1.0415.3345-1.5.5725-1.2501 1.8281-2.125 3.2905-2.125s2.718.8749 3.2905 2.125c.21.4585.3345.9636.3345 1.5 0 .1712-.0273.335-.0505.5zm15.6755-2h-13.8335c-.6572-2.3773-2.8301-4.125-5.4165-4.125s-4.7593 1.7477-5.4165 4.125h-1.3335c-1.6543 0-3-1.3458-3-3v-21c0-1.6542 1.3457-3 3-3h23c1.6543 0 3 1.3458 3 3zm9.3245 2c-.2463 1.7609-1.7468 3.125-3.5745 3.125s-3.3281-1.3641-3.5745-3.125c-.0232-.165-.0505-.3288-.0505-.5 0-.5364.1245-1.0415.3345-1.5.5725-1.2501 1.8281-2.125 3.2905-2.125s2.718.8749 3.2905 2.125c.21.4585.3345.9636.3345 1.5 0 .1712-.0273.335-.0505.5zm6.6755-3.8657c0 1.3252-.5811 1.8657-2.0068 1.8657h-2.8267c-.6572-2.3773-2.8301-4.125-5.4165-4.125-1.4429 0-2.7544.5478-3.75 1.4407v-15.3157h4.6836c.9785 0 1.5107.1958 2.0303.7437l6.6875 7.1411c.375.3823.5986.9424.5986 1.498zm-3.3914-8.0216c.2444.2794.3914.493.3914.8873h-7.7773c-.75 0-1.2227-.4766-1.2227-1.2324v-5.7676h2.4131c.5703 0 .9944.23 1.3364.6244z"></path>
</svg>