<svg xmlns="http://www.w3.org/2000/svg"  xmlns:xlink="http://www.w3.org/1999/xlink"  width="36" height="56" viewBox="0 0 36 56" class="dd-glyph-svg dd-glyph-elevated" aria-hidden="true">
  <path d="m.0072.0046h35.9856v55.9908h-35.9856z" fill="none"></path>
  <path d="m29 12c2.757 0 5 2.243 5 5v22c0 2.757-2.243 5-5 5h-22c-2.757 0-5-2.243-5-5v-22c0-2.757 2.243-5 5-5zm0-2h-22c-3.866 0-7 3.134-7 7v22c0 3.866 3.134 7 7 7h22c3.866 0 7-3.134 7-7v-22c0-3.866-3.134-7-7-7zm-3.5 11h-2.5378c-.1951-2.46-2.3293-4.4048-4.9622-4.4048s-4.7672 1.9448-4.9622 4.4048h-2.5378c-1.3807 0-2.5 1.1193-2.5 2.5v14c0 1.3807 1.1193 2.5 2.5 2.5h15c1.3807 0 2.5-1.1193 2.5-2.5v-14c0-1.3807-1.1193-2.5-2.5-2.5zm-3.9586 10.849c-.1356.3135-.2965.6016-.4744.8727-.2457.3643-.449.6185-.61.754-.2373.2288-.4999.3474-.7795.3559-.1948 0-.4406-.0593-.7202-.1779-.2796-.1187-.5422-.1779-.7794-.1779-.2457 0-.5084.0593-.7964.1779s-.5168.1779-.6947.1863c-.2627.0085-.5253-.1101-.7964-.3643-.1694-.1525-.3813-.4066-.6354-.7794-.2711-.3983-.4913-.8473-.6693-1.3726-.1863-.5591-.2796-1.1099-.2796-1.6351 0-.6016.1271-1.1183.3813-1.5589.1948-.3474.4659-.627.7964-.8303.3389-.2033.6947-.3051 1.0845-.3135.2118 0 .4913.0593.8387.1948.3389.1356.5591.2034.6608.2034.0762 0 .322-.0763.7371-.2372.3897-.144.7286-.2034.9997-.1779.7371.0593 1.2878.3558 1.6605.8981-.6608.4152-.9912.9913-.9827 1.7283.0084.5761.2118 1.059.6016 1.4318.1863.1779.3896.3135.61.4067-.0424.144-.1017.2795-.1526.4151zm-3.5584-5.1511c0-.4406.161-.8472.4915-1.2285.1694-.1949.3728-.3474.627-.4745.2457-.127.4829-.2033.7117-.2118.0085.0593.0085.1187.0085.1779 0 .449-.161.8812-.483 1.2708-.3897.466-.8387.6778-1.3471.6354-.0086-.0507-.0086-.11-.0086-.1693zm-3.8446-5.6979c.1945-1.8496 1.8414-3.3047 3.8616-3.3047s3.6671 1.4551 3.8616 3.3047z"></path>
</svg>