<svg xmlns="http://www.w3.org/2000/svg"  xmlns:xlink="http://www.w3.org/1999/xlink"  width="40" height="56" viewBox="0 0 40 56" class="dd-glyph-svg dd-glyph-elevated" aria-hidden="true">
  <path d="m0 0h40v56h-40z" fill="none"></path>
  <path d="m32.7812 29.6094a1.0221 1.0221 0 0 0 -1-.125 42.9866 42.9866 0 0 1 -5.76 1.3437 37.7 37.7 0 0 1 -6.01.4688 37.8947 37.8947 0 0 1 -6.0208-.4688 42.1134 42.1134 0 0 1 -5.75-1.3437 1.08 1.08 0 0 0 -1.0313.125.9492.9492 0 0 0 -.2812.9583 12.0862 12.0862 0 0 0 2.1875 5.6667 13.3019 13.3019 0 0 0 4.6446 4.0521 13.0763 13.0763 0 0 0 6.25 1.51 13.0332 13.0332 0 0 0 6.2292-1.51 13.3984 13.3984 0 0 0 4.6562-4.0521 11.8567 11.8567 0 0 0 2.1771-5.6667.9968.9968 0 0 0 -.2913-.9583zm-2.3124 4.4167a37.2669 37.2669 0 0 1 -5.1771 1.0939 38.5047 38.5047 0 0 1 -5.2813.3646 38.8064 38.8064 0 0 1 -5.2812-.3646 37.13 37.13 0 0 1 -5.198-1.0937 9.7 9.7 0 0 1 -1.0833-2.9167 43.2962 43.2962 0 0 0 5.6459 1.2292 39.8385 39.8385 0 0 0 5.9166.4375 39.9092 39.9092 0 0 0 5.9063-.4375 42.4138 42.4138 0 0 0 5.6354-1.2292 9.43 9.43 0 0 1 -1.0833 2.9165zm-17.8021-8.5834a2.8583 2.8583 0 0 1 0-3.5416 1.8441 1.8441 0 0 1 1.4271-.7084 1.9442 1.9442 0 0 1 1.4895.7084 2.7531 2.7531 0 0 1 -.01 3.5312 1.944 1.944 0 0 1 -1.4791.7188 1.8438 1.8438 0 0 1 -1.4275-.7084zm11.7812-.01a2.8064 2.8064 0 0 1 0-3.5312 1.8745 1.8745 0 0 1 1.4375-.7084 1.8935 1.8935 0 0 1 1.4583.7084 2.8207 2.8207 0 0 1 0 3.5416 1.8931 1.8931 0 0 1 -1.4583.7084 1.8644 1.8644 0 0 1 -1.4375-.7192zm-4.4479-14.7327a17.3 17.3 0 1 1 -17.3 17.3 17.32 17.32 0 0 1 17.3-17.3m0-2.2a19.5 19.5 0 1 0 19.5 19.5 19.5 19.5 0 0 0 -19.5-19.5z"></path>
</svg>