<svg xmlns:xlink="http://www.w3.org/1999/xlink"  xmlns="http://www.w3.org/2000/svg" viewBox="0 0 29 56" class="as-svgicon as-svgicon-applelogo as-svgicon-elevated" aria-hidden="true" role="img">
  <g>
    <rect width="29" height="56" fill="none"></rect>
    <defs id="defs2334">
      <linearGradient id="linearGradient2904">
        <stop style="stop-color:#f8ab5e;stop-opacity:1" offset="0" id="stop2900"></stop>
        <stop style="stop-color:#f3695f;stop-opacity:1" offset="1" id="stop2902"></stop>
      </linearGradient>
      <linearGradient xlink:href="#linearGradient2904" id="linearGradient2906" x1="0.16650136" y1="23.976196" x2="15.151624" y2="23.976196" gradientUnits="userSpaceOnUse"></linearGradient>
    </defs>
    <g>
      <path id="path2324" d="m 14.9,14.43 a 2.581,2.581 0 0 1 -0.472,-0.045 3.083,3.083 0 0 1 -0.067,-0.629 7.531,7.531 0 0 1 1.909,-4.694 7.76,7.76 0 0 1 5.1,-2.628 3.329,3.329 0 0 1 0.067,0.7 7.745,7.745 0 0 1 -1.837,4.825 6.728,6.728 0 0 1 -4.7,2.471 z m 12.807,3.818 a 7.851,7.851 0 0 0 -3.751,6.6 7.64,7.64 0 0 0 4.649,7.008 18.257,18.257 0 0 1 -2.381,4.919 c -1.482,2.134 -3.032,4.268 -5.391,4.268 -2.359,0 -2.965,-1.37 -5.683,-1.37 -2.65,0 -3.594,1.415 -5.75,1.415 -2.156,0 -3.661,-1.977 -5.391,-4.4 A 21.279,21.279 0 0 1 0.395,25.211 c 0,-6.738 4.38,-10.31 8.692,-10.31 2.291,0 4.2,1.5 5.638,1.5 1.37,0 3.5,-1.595 6.109,-1.595 a 8.172,8.172 0 0 1 6.873,3.442 z" style="fill-opacity:1;fill:url(#linearGradient2906)"></path>
      
    </g>
  </g>
</svg>