<svg xmlns="http://www.w3.org/2000/svg" xmlns:xlink="http://www.w3.org/1999/xlink" viewBox="0 0 16 16"><defs><path id="a" d="M6.8 11c-1.1 0-2.2-.4-3-1.2-1.6-1.6-1.6-4.3 0-6 .8-.8 1.8-1.2 3-1.2s2.2.4 3 1.2 1.2 1.8 1.2 3c0 1.1-.4 2.2-1.2 3-.8.7-1.9 1.2-3 1.2zm8 2.7l-3.4-3.4c1.7-2.2 1.6-5.5-.5-7.5C9.7 1.6 8.2 1 6.7 1s-2.9.6-4 1.7C.5 4.9.5 8.6 2.7 10.8c1.1 1.1 2.6 1.7 4.1 1.7 1.2 0 2.5-.4 3.5-1.2l3.5 3.4c.2.2.3.2.6.2.2 0 .4-.1.6-.2.1-.2.1-.7-.2-1z"/></defs><clipPath id="b"><use xlink:href="#a" overflow="visible"/></clipPath><g clip-path="url(#b)"><defs><path id="c" d="M-515-62.2H925v1022H-515z"/></defs><clipPath id="d"><use xlink:href="#c" overflow="visible"/></clipPath><path clip-path="url(#d)" fill="#787878" d="M-4-4h24v24H-4z"/></g></svg>